<?xml version="1.0" encoding="iso-8859-1"?>
<!-- Generator: Adobe Illustrator 19.0.0, SVG Export Plug-In . SVG Version: 6.00 Build 0)  -->
<svg version="1.1" id="Layer_1" xmlns="http://www.w3.org/2000/svg" xmlns:xlink="http://www.w3.org/1999/xlink" x="0px" y="0px"
	 viewBox="0 0 512 512" style="enable-background:new 0 0 512 512;" xml:space="preserve">
<g>
	<g>
		<g>
			<path d="M434.995,163.796c-4.514-76.8-67.823-138.197-144.145-138.197c-46.336,0-91.196,22.724-118.997,59.802
				c-1.743-0.903-3.518-1.729-5.317-2.493c-0.082-0.035-0.163-0.07-0.244-0.104c-1.071-0.451-2.151-0.879-3.24-1.28
				c-0.133-0.049-0.268-0.095-0.402-0.144c-1.027-0.372-2.061-0.724-3.102-1.052c-0.09-0.029-0.18-0.06-0.27-0.088
				c-1.054-0.327-2.117-0.625-3.185-0.906c-0.24-0.063-0.479-0.126-0.72-0.187c-1.051-0.266-2.107-0.512-3.169-0.733
				c-0.203-0.042-0.408-0.08-0.612-0.121c-1.044-0.208-2.091-0.398-3.145-0.563c-0.103-0.016-0.206-0.036-0.309-0.051
				c-1.138-0.173-2.282-0.315-3.429-0.437c-0.197-0.021-0.393-0.043-0.59-0.062c-1.154-0.114-2.311-0.203-3.473-0.265
				c-0.143-0.008-0.286-0.013-0.429-0.019c-1.224-0.058-2.451-0.096-3.682-0.096c-42.351,0-76.8,34.449-76.8,76.8
				c0,0,0,0.001,0,0.001s0,0.001,0,0.001c0,0.001,0,0.002,0,0.003c0,1.099,0.068,2.172,0.145,3.246
				C24.38,176.203,0,216.745,0,257.321c0,47.437,25.557,88.311,65.109,104.132c1.033,0.418,2.108,0.606,3.166,0.606
				c3.379,0,6.588-2.022,7.927-5.367c1.749-4.378-0.384-9.344-4.762-11.093c-33.033-13.21-54.374-47.863-54.374-88.277
				c0-35.456,23.083-72.243,54.895-87.492l4.838-2.321v-5.376c0-1.024,0.068-2.065,0.128-3.115l0.085-1.579l-0.102-1.655
				c-0.051-0.725-0.111-1.45-0.111-2.183c0.001-32.929,26.804-59.732,59.733-59.732c0.945,0,1.884,0.028,2.819,0.072
				c0.199,0.009,0.398,0.021,0.596,0.033c0.784,0.044,1.563,0.104,2.338,0.178c0.164,0.016,0.329,0.028,0.494,0.045
				c0.917,0.096,1.829,0.211,2.733,0.348c0.14,0.021,0.279,0.047,0.418,0.07c0.758,0.12,1.512,0.256,2.261,0.405
				c0.234,0.047,0.467,0.094,0.701,0.143c0.767,0.162,1.53,0.338,2.286,0.529c0.111,0.028,0.223,0.052,0.334,0.081
				c0.879,0.228,1.75,0.477,2.614,0.744c0.158,0.049,0.315,0.102,0.473,0.152c0.719,0.229,1.433,0.471,2.14,0.726
				c0.18,0.065,0.361,0.13,0.54,0.196c1.724,0.641,3.412,1.356,5.057,2.147c0.069,0.033,0.137,0.068,0.205,0.101
				c0.772,0.375,1.535,0.767,2.288,1.174c0.087,0.047,0.174,0.093,0.26,0.141c18.556,10.147,31.175,29.854,31.175,52.447
				c0,4.719,3.814,8.533,8.533,8.533s8.533-3.814,8.533-8.533c0-23.5-10.618-44.555-27.296-58.654
				C210.5,62.96,250.78,42.665,290.85,42.665c66.098,0,121.135,52.345,126.839,118.517c-8.717-0.617-21.861-0.935-34.969,1.055
				c-4.659,0.708-7.859,5.052-7.151,9.711c0.64,4.233,4.275,7.253,8.422,7.253c0.427,0,0.862-0.034,1.289-0.102
				c18.444-2.778,37.748-0.315,39.949-0.021c39.742,7.55,69.704,44.158,69.704,85.215c0,35.473-21.854,68.113-54.383,81.22
				c-4.369,1.758-6.485,6.733-4.727,11.102c1.766,4.378,6.724,6.451,11.11,4.727C485.854,345.667,512,306.669,512,264.293
				C512,217.462,479.343,175.444,434.995,163.796z"/>
			<path d="M256,247.468c-109.099,0-162.133,13.96-162.133,42.667v76.8c0,0,0,0,0,0s0,0,0,0v76.8
				c0,28.706,53.035,42.667,162.133,42.667s162.133-13.961,162.133-42.667v-76.8c0,0,0,0,0,0s0,0,0,0v-76.8
				C418.133,261.428,365.099,247.468,256,247.468z M256,264.534c143.42,0,145.067,24.559,145.067,25.6
				c0,1.041-1.647,25.6-145.067,25.6s-145.067-24.559-145.067-25.6C110.933,289.093,112.58,264.534,256,264.534z M401.067,443.735
				c0,1.041-1.647,25.6-145.067,25.6s-145.067-24.559-145.067-25.6v-53.367c23.543,12.902,71.586,19.234,145.067,19.234
				s121.523-6.332,145.067-19.234V443.735z M256,392.535c-143.42,0-145.067-24.559-145.067-25.6c0,0,0,0,0,0s0,0,0,0v-53.374
				c23.541,12.906,71.585,19.24,145.067,19.24s121.526-6.334,145.067-19.24v53.374c0,0,0,0,0,0s0,0,0,0
				C401.067,367.976,399.42,392.535,256,392.535z"/>
		</g>
	</g>
</g>
<g>
</g>
<g>
</g>
<g>
</g>
<g>
</g>
<g>
</g>
<g>
</g>
<g>
</g>
<g>
</g>
<g>
</g>
<g>
</g>
<g>
</g>
<g>
</g>
<g>
</g>
<g>
</g>
<g>
</g>
</svg>
